<svg xmlns="http://www.w3.org/2000/svg" width="332" height="97" fill="none" viewBox="0 0 332 97"><path fill="#F00" d="M135.116 15.177c-1.587-5.974-6.263-10.679-12.2-12.276C112.154 0 69 0 69 0S25.846 0 15.084 2.901C9.147 4.498 4.471 9.203 2.884 15.177 0 26.006 0 48.598 0 48.598s0 22.592 2.884 33.42c1.587 5.975 6.263 10.484 12.2 12.08C25.846 97 69 97 69 97s43.154 0 53.916-2.901c5.937-1.597 10.613-6.106 12.2-12.08C138 71.19 138 48.598 138 48.598s0-22.592-2.884-33.42zM54.886 69.11V28.086l36.068 20.513L54.886 69.11z"/><path fill="#000" d="M155.358 33.077h12.766V34h-13.706V9.117h.94v23.96zm15.261-8.681c0-1.766.336-3.35 1.008-4.752.684-1.412 1.641-2.512 2.872-3.298 1.241-.786 2.643-1.179 4.204-1.179 1.549 0 2.939.382 4.17 1.145 1.23.763 2.187 1.846 2.871 3.247.695 1.401 1.048 2.98 1.059 4.734v.82c0 1.778-.336 3.367-1.008 4.768-.672 1.402-1.629 2.495-2.871 3.282-1.231.786-2.626 1.179-4.187 1.179-1.561 0-2.962-.388-4.204-1.162-1.231-.775-2.188-1.857-2.871-3.247-.684-1.402-1.031-2.974-1.043-4.717v-.82zm.923.717c0 1.538.302 2.951.906 4.239.615 1.276 1.464 2.273 2.546 2.99 1.094.718 2.341 1.077 3.743 1.077 2.108 0 3.822-.792 5.144-2.375 1.333-1.584 1.999-3.624 1.999-6.119v-.53c0-1.515-.307-2.916-.922-4.204-.616-1.287-1.47-2.29-2.564-3.007-1.082-.73-2.313-1.094-3.691-1.094-2.108 0-3.828.803-5.161 2.41-1.334 1.606-2 3.628-2 6.066v.547zm23.071 3.538l1.009 3.982 5.417-17.124h.94l5.383 17.124 1.043-3.982 3.76-13.142h1.076L207.858 34h-.923l-4.563-13.894-.872-3.316-.939 3.316L196.066 34h-.923l-5.366-18.491h1.059l3.777 13.142zM226.64 34V9.117h6.545c2.677 0 4.7.547 6.067 1.64 1.379 1.083 2.068 2.661 2.068 4.735 0 1.504-.382 2.751-1.145 3.742-.764.992-1.84 1.624-3.23 1.897 1.572.205 2.882.889 3.93 2.051 1.049 1.15 1.573 2.473 1.573 3.965 0 2.12-.69 3.794-2.068 5.024-1.367 1.22-3.276 1.829-5.725 1.829h-8.015zm.922-12.288v11.365h7.195c2.108 0 3.76-.518 4.956-1.555 1.208-1.048 1.812-2.495 1.812-4.34 0-1.573-.581-2.866-1.743-3.88-1.162-1.026-2.718-1.555-4.666-1.59h-7.554zm0-.922h5.965c2.267 0 3.976-.433 5.127-1.3 1.151-.877 1.726-2.232 1.726-4.067 0-3.532-2.33-5.326-6.99-5.383h-5.828v10.75zM259.674 34v-2.99c-.547 1.025-1.344 1.84-2.392 2.443-1.048.593-2.376.889-3.982.889-2.017 0-3.532-.587-4.546-1.76-1.003-1.185-1.515-2.906-1.538-5.162V15.51h.923v11.946c.022 1.96.467 3.446 1.333 4.46.866 1.003 2.13 1.504 3.794 1.504 1.766 0 3.201-.416 4.306-1.248 1.105-.831 1.806-2.05 2.102-3.657V15.51h.94V34h-.94zm5.93-9.434c0-2.95.621-5.252 1.863-6.904 1.242-1.663 2.945-2.495 5.11-2.495 1.39 0 2.615.313 3.674.94 1.071.627 1.937 1.56 2.598 2.803V7.75h.923V34h-.923v-2.956a6.506 6.506 0 0 1-2.58 2.443c-1.094.57-2.336.855-3.726.855-2.142 0-3.834-.849-5.076-2.547-1.242-1.697-1.863-4.027-1.863-6.99v-.239zm.958.36c0 2.62.518 4.693 1.555 6.22 1.036 1.515 2.506 2.273 4.409 2.273 1.527 0 2.831-.336 3.913-1.008 1.083-.684 1.886-1.68 2.41-2.991v-8.665c-1.059-3.11-3.156-4.665-6.289-4.665-1.891 0-3.367.746-4.426 2.239-1.048 1.492-1.572 3.691-1.572 6.596zm18.2-.36c0-2.95.621-5.252 1.863-6.904 1.242-1.663 2.945-2.495 5.11-2.495 1.378 0 2.603.319 3.674.957 1.071.627 1.931 1.55 2.581 2.769v-3.384h.94v18.166c0 2.438-.627 4.341-1.88 5.708-1.253 1.379-2.957 2.068-5.11 2.068-1.242 0-2.381-.268-3.418-.803-1.025-.536-1.903-1.305-2.632-2.307l.65-.615c.717.911 1.503 1.606 2.358 2.084.854.49 1.857.735 3.008.735 1.902 0 3.384-.58 4.443-1.743 1.06-1.15 1.607-2.78 1.641-4.887v-2.837a6.498 6.498 0 0 1-2.598 2.426c-1.082.559-2.313.838-3.691.838-2.142 0-3.834-.849-5.076-2.547-1.242-1.697-1.863-4.027-1.863-6.99v-.239zm.94.36c0 2.643.524 4.722 1.572 6.237 1.049 1.504 2.518 2.256 4.41 2.256 1.56 0 2.888-.359 3.982-1.077 1.093-.729 1.868-1.749 2.324-3.059v-8.39c-1.003-3.202-3.094-4.803-6.272-4.803-1.903 0-3.384.746-4.444 2.239-1.048 1.492-1.572 3.691-1.572 6.596zm25.789 9.416a7.52 7.52 0 0 1-4.119-1.197c-1.242-.808-2.216-1.914-2.922-3.315-.707-1.401-1.06-2.956-1.06-4.665v-.77c0-1.709.342-3.275 1.026-4.7.683-1.423 1.623-2.534 2.819-3.332a6.916 6.916 0 0 1 3.914-1.196c2.062 0 3.748.735 5.059 2.205 1.31 1.47 1.965 3.4 1.965 5.793v.974h-13.86v1.009c0 1.503.313 2.899.94 4.186.638 1.276 1.51 2.28 2.615 3.008 1.116.73 2.324 1.094 3.623 1.094 1.242 0 2.295-.205 3.161-.615.878-.422 1.652-1.065 2.325-1.931l.649.461c-1.379 1.994-3.424 2.99-6.135 2.99zm-.342-18.252c-1.8 0-3.327.672-4.58 2.016-1.253 1.333-1.988 3.037-2.205 5.11h12.886v-.222a7.692 7.692 0 0 0-.803-3.486c-.524-1.082-1.253-1.92-2.188-2.512-.923-.604-1.959-.906-3.11-.906zm13.398-5.571v4.99h4.204v.94h-4.204v13.125c0 1.31.211 2.278.633 2.905.433.627 1.15.94 2.153.94.501 0 1.111-.051 1.829-.154l.153.872c-.376.136-1.019.205-1.931.205-1.344 0-2.307-.37-2.888-1.111-.581-.752-.877-1.931-.889-3.538V16.45h-3.418v-.94h3.418v-4.99h.94zm-159.66 56.903l6.657-14.414h7.207l-10.502 20.39V85h-6.702V73.398l-10.503-20.39h7.229l6.614 14.414zm16.18 5.471c0-2.358.454-4.46 1.363-6.306.908-1.846 2.212-3.274 3.911-4.285 1.714-1.01 3.699-1.516 5.954-1.516 3.208 0 5.823.982 7.845 2.944 2.036 1.963 3.171 4.63 3.405 7.998l.044 1.627c0 3.647-1.018 6.577-3.054 8.789-2.036 2.197-4.768 3.295-8.196 3.295-3.427 0-6.167-1.098-8.217-3.295-2.037-2.198-3.055-5.186-3.055-8.965v-.286zm6.35.462c0 2.255.425 3.984 1.275 5.185.85 1.187 2.065 1.78 3.647 1.78 1.538 0 2.74-.586 3.604-1.758.864-1.186 1.296-3.076 1.296-5.669 0-2.212-.432-3.926-1.296-5.142-.864-1.215-2.08-1.823-3.648-1.823-1.552 0-2.753.608-3.603 1.823-.85 1.202-1.275 3.07-1.275 5.603zm36.572 9.228c-1.568 1.904-3.736 2.856-6.504 2.856-2.549 0-4.497-.732-5.845-2.197-1.333-1.465-2.014-3.61-2.043-6.438V61.226h6.35v15.359c0 2.475 1.128 3.713 3.384 3.713 2.153 0 3.632-.747 4.438-2.241V61.226h6.372V85h-5.976l-.176-2.417zm20.795-27.202v5.845h4.065v4.658h-4.065v11.865c0 .879.168 1.509.505 1.89.337.38.982.571 1.934.571.703 0 1.325-.051 1.867-.154v4.812a13.068 13.068 0 0 1-3.845.572c-4.453 0-6.724-2.25-6.811-6.746v-12.81h-3.472v-4.658h3.472V55.38h6.35zm24.091 27.202c-1.568 1.904-3.736 2.856-6.504 2.856-2.549 0-4.497-.732-5.845-2.197-1.333-1.465-2.014-3.61-2.044-6.438V61.226h6.351v15.359c0 2.475 1.127 3.713 3.383 3.713 2.154 0 3.633-.747 4.439-2.241V61.226h6.372V85h-5.977l-.175-2.417zm34.615-9.25c0 3.808-.813 6.782-2.439 8.92-1.626 2.124-3.896 3.186-6.811 3.186-2.578 0-4.636-.988-6.175-2.966L287.78 85h-5.713V51.25h6.35v12.107c1.465-1.714 3.391-2.57 5.779-2.57 2.9 0 5.171 1.069 6.811 3.207 1.656 2.124 2.483 5.12 2.483 8.987v.352zm-6.35-.462c0-2.402-.381-4.153-1.142-5.251-.762-1.114-1.897-1.67-3.406-1.67-2.022 0-3.413.827-4.175 2.483v9.382c.776 1.67 2.183 2.505 4.219 2.505 2.051 0 3.398-1.01 4.043-3.032.307-.967.461-2.44.461-4.417zm23.476 12.569c-3.487 0-6.328-1.07-8.526-3.209-2.182-2.138-3.274-4.987-3.274-8.547v-.615c0-2.388.462-4.52 1.385-6.394.923-1.89 2.226-3.34 3.911-4.35 1.699-1.026 3.633-1.539 5.801-1.539 3.252 0 5.808 1.026 7.668 3.076 1.875 2.051 2.813 4.959 2.813 8.723v2.593h-15.14c.205 1.553.821 2.798 1.846 3.736 1.04.937 2.351 1.406 3.933 1.406 2.446 0 4.358-.886 5.735-2.659l3.12 3.494c-.952 1.347-2.241 2.402-3.867 3.164-1.626.747-3.428 1.12-5.405 1.12zm-.725-19.512c-1.26 0-2.286.425-3.077 1.274-.776.85-1.274 2.066-1.494 3.648h8.833v-.506c-.029-1.406-.41-2.49-1.142-3.252-.733-.776-1.773-1.164-3.12-1.164z"/></svg>