<svg width="336" height="97" viewBox="0 0 336 97" fill="none" xmlns="http://www.w3.org/2000/svg">
<path d="M135.116 15.1772C133.529 9.20313 128.853 4.49812 122.916 2.90141C112.154 0 69 0 69 0C69 0 25.8464 0 15.0843 2.90141C9.14695 4.49837 4.47076 9.20313 2.88364 15.1772C0 26.0056 0 48.598 0 48.598C0 48.598 0 71.1904 2.88364 82.0188C4.47076 87.9929 9.14695 92.5019 15.0843 94.0986C25.8464 97 69 97 69 97C69 97 112.154 97 122.916 94.0986C128.853 92.5019 133.529 87.9929 135.116 82.0188C138 71.1904 138 48.598 138 48.598C138 48.598 138 26.0056 135.116 15.1772ZM54.8863 69.1102V28.0858L90.9543 48.5985L54.8863 69.1102Z" fill="#FF0000"/>
<path d="M157.187 31.3169H168.979V34H153.888V9.11719H157.187V31.3169ZM171.388 24.5835C171.388 22.772 171.741 21.1427 172.448 19.6958C173.166 18.2489 174.157 17.1323 175.421 16.3462C176.697 15.5601 178.15 15.167 179.779 15.167C182.297 15.167 184.331 16.0386 185.88 17.7817C187.441 19.5249 188.222 21.8434 188.222 24.7373V24.9595C188.222 26.7596 187.874 28.3774 187.179 29.813C186.496 31.2371 185.51 32.348 184.223 33.1455C182.947 33.943 181.477 34.3418 179.813 34.3418C177.307 34.3418 175.273 33.4702 173.712 31.7271C172.163 29.9839 171.388 27.6768 171.388 24.8057V24.5835ZM174.567 24.9595C174.567 27.0103 175.04 28.6566 175.985 29.8984C176.942 31.1403 178.218 31.7612 179.813 31.7612C181.42 31.7612 182.696 31.1346 183.642 29.8813C184.587 28.6167 185.06 26.8507 185.06 24.5835C185.06 22.5555 184.576 20.9149 183.607 19.6616C182.65 18.397 181.374 17.7646 179.779 17.7646C178.218 17.7646 176.959 18.3856 176.002 19.6274C175.045 20.8693 174.567 22.6466 174.567 24.9595ZM208.559 29.6421L212.113 15.5088H215.275L209.892 34H207.328L202.833 19.9863L198.458 34H195.895L190.529 15.5088H193.673L197.313 29.3516L201.62 15.5088H204.167L208.559 29.6421ZM227.682 34V9.11719H235.817C238.517 9.11719 240.545 9.67546 241.901 10.792C243.268 11.9085 243.952 13.5605 243.952 15.748C243.952 16.9102 243.621 17.9412 242.96 18.8413C242.3 19.73 241.4 20.4193 240.26 20.9092C241.605 21.2852 242.664 22.0029 243.439 23.0625C244.225 24.1107 244.618 25.3639 244.618 26.8223C244.618 29.0553 243.895 30.8099 242.448 32.0859C241.001 33.362 238.956 34 236.312 34H227.682ZM230.963 22.3618V31.3169H236.381C237.908 31.3169 239.11 30.9238 239.987 30.1377C240.875 29.3402 241.32 28.2464 241.32 26.8564C241.32 23.86 239.691 22.3618 236.432 22.3618H230.963ZM230.963 19.73H235.919C237.355 19.73 238.5 19.3711 239.354 18.6533C240.22 17.9355 240.653 16.9614 240.653 15.731C240.653 14.3638 240.255 13.3726 239.457 12.7573C238.66 12.1307 237.446 11.8174 235.817 11.8174H230.963V19.73ZM260.409 32.1714C259.179 33.6183 257.373 34.3418 254.992 34.3418C253.021 34.3418 251.517 33.7721 250.48 32.6328C249.455 31.4821 248.936 29.7845 248.925 27.54V15.5088H252.086V27.4546C252.086 30.2573 253.226 31.6587 255.504 31.6587C257.92 31.6587 259.526 30.7586 260.324 28.9585V15.5088H263.485V34H260.478L260.409 32.1714ZM267.536 24.6006C267.536 21.7637 268.208 19.485 269.552 17.7646C270.897 16.0329 272.657 15.167 274.833 15.167C276.998 15.167 278.712 15.9076 279.977 17.3887V7.75H283.139V34H280.233L280.08 32.0176C278.815 33.5671 277.055 34.3418 274.799 34.3418C272.657 34.3418 270.908 33.4645 269.552 31.71C268.208 29.9554 267.536 27.6654 267.536 24.8398V24.6006ZM270.697 24.9595C270.697 27.0558 271.13 28.6965 271.996 29.8813C272.862 31.0662 274.058 31.6587 275.585 31.6587C277.59 31.6587 279.054 30.7586 279.977 28.9585V20.4648C279.031 18.7217 277.579 17.8501 275.619 17.8501C274.07 17.8501 272.862 18.4482 271.996 19.6445C271.13 20.8408 270.697 22.6125 270.697 24.9595ZM287.309 24.6006C287.309 21.7181 287.975 19.4281 289.308 17.7305C290.641 16.0215 292.407 15.167 294.606 15.167C296.862 15.167 298.622 15.9645 299.887 17.5596L300.041 15.5088H302.929V33.5557C302.929 35.9482 302.217 37.8338 300.792 39.2124C299.38 40.591 297.477 41.2803 295.084 41.2803C293.751 41.2803 292.447 40.9954 291.171 40.4258C289.895 39.8561 288.921 39.0757 288.249 38.0845L289.889 36.1875C291.245 37.8623 292.903 38.6997 294.862 38.6997C296.4 38.6997 297.597 38.2668 298.451 37.4009C299.317 36.535 299.75 35.3159 299.75 33.7437V32.1543C298.485 33.6126 296.759 34.3418 294.572 34.3418C292.407 34.3418 290.653 33.4702 289.308 31.7271C287.975 29.9839 287.309 27.6084 287.309 24.6006ZM290.487 24.9595C290.487 27.0444 290.915 28.6851 291.769 29.8813C292.624 31.0662 293.82 31.6587 295.358 31.6587C297.352 31.6587 298.816 30.7529 299.75 28.9414V20.499C298.782 18.7331 297.329 17.8501 295.392 17.8501C293.854 17.8501 292.652 18.4482 291.786 19.6445C290.92 20.8408 290.487 22.6125 290.487 24.9595ZM315.387 34.3418C312.881 34.3418 310.841 33.5215 309.269 31.8809C307.697 30.2288 306.911 28.0243 306.911 25.2671V24.686C306.911 22.8517 307.258 21.2168 307.953 19.7812C308.66 18.3343 309.639 17.2064 310.893 16.3975C312.157 15.5771 313.524 15.167 314.994 15.167C317.398 15.167 319.267 15.9588 320.6 17.5425C321.933 19.1261 322.599 21.3934 322.599 24.3442V25.6602H310.072C310.118 27.4831 310.648 28.9585 311.662 30.0864C312.687 31.203 313.986 31.7612 315.558 31.7612C316.675 31.7612 317.62 31.5334 318.395 31.0776C319.17 30.6219 319.848 30.0181 320.429 29.2661L322.36 30.77C320.81 33.1512 318.486 34.3418 315.387 34.3418ZM314.994 17.7646C313.718 17.7646 312.647 18.2318 311.781 19.166C310.915 20.0889 310.38 21.3877 310.175 23.0625H319.438V22.8232C319.346 21.2168 318.913 19.9749 318.139 19.0977C317.364 18.209 316.316 17.7646 314.994 17.7646ZM330.563 11.0312V15.5088H334.015V17.9526H330.563V29.4199C330.563 30.1605 330.717 30.7188 331.024 31.0947C331.332 31.4593 331.856 31.6416 332.597 31.6416C332.961 31.6416 333.463 31.5732 334.101 31.4365V34C333.269 34.2279 332.46 34.3418 331.674 34.3418C330.261 34.3418 329.196 33.9146 328.478 33.0601C327.76 32.2056 327.401 30.9922 327.401 29.4199V17.9526H324.035V15.5088H327.401V11.0312H330.563Z" fill="black"/>
<path d="M164.887 67.4219L171.544 53.0078H178.751L168.249 73.3984V85H161.547V73.3984L151.044 53.0078H158.273L164.887 67.4219ZM181.742 72.8931C181.742 70.5347 182.196 68.4326 183.105 66.5869C184.013 64.7412 185.317 63.313 187.016 62.3022C188.73 61.2915 190.715 60.7861 192.97 60.7861C196.178 60.7861 198.793 61.7676 200.815 63.7305C202.851 65.6934 203.986 68.3594 204.22 71.7285L204.264 73.3545C204.264 77.002 203.246 79.9316 201.21 82.1436C199.174 84.3408 196.442 85.4395 193.014 85.4395C189.587 85.4395 186.847 84.3408 184.797 82.1436C182.76 79.9463 181.742 76.958 181.742 73.1787V72.8931ZM188.092 73.3545C188.092 75.6104 188.517 77.3389 189.367 78.54C190.217 79.7266 191.432 80.3198 193.014 80.3198C194.552 80.3198 195.754 79.7339 196.618 78.562C197.482 77.3755 197.914 75.4858 197.914 72.8931C197.914 70.6812 197.482 68.9673 196.618 67.7515C195.754 66.5356 194.538 65.9277 192.97 65.9277C191.418 65.9277 190.217 66.5356 189.367 67.7515C188.517 68.9526 188.092 70.8203 188.092 73.3545ZM225.339 82.583C223.771 84.4873 221.603 85.4395 218.835 85.4395C216.286 85.4395 214.338 84.707 212.99 83.2422C211.657 81.7773 210.976 79.6313 210.947 76.8042V61.2256H217.297V76.5845C217.297 79.0601 218.425 80.2979 220.681 80.2979C222.834 80.2979 224.313 79.5508 225.119 78.0566V61.2256H231.491V85H225.515L225.339 82.583ZM246.809 55.3809V61.2256H250.874V65.8838H246.809V77.749C246.809 78.6279 246.977 79.2578 247.314 79.6387C247.651 80.0195 248.296 80.21 249.248 80.21C249.951 80.21 250.573 80.1587 251.115 80.0562V84.8682C249.87 85.249 248.588 85.4395 247.27 85.4395C242.817 85.4395 240.546 83.1909 240.459 78.6938V65.8838H236.987V61.2256H240.459V55.3809H246.809ZM271.575 82.583C270.007 84.4873 267.839 85.4395 265.071 85.4395C262.522 85.4395 260.574 84.707 259.226 83.2422C257.893 81.7773 257.212 79.6313 257.182 76.8042V61.2256H263.533V76.5845C263.533 79.0601 264.66 80.2979 266.916 80.2979C269.07 80.2979 270.549 79.5508 271.355 78.0566V61.2256H277.727V85H271.75L271.575 82.583ZM306.865 73.3325C306.865 77.1411 306.052 80.1147 304.426 82.2534C302.8 84.3774 300.53 85.4395 297.615 85.4395C295.037 85.4395 292.979 84.4507 291.44 82.4731L291.155 85H285.442V51.25H291.792V63.3569C293.257 61.6431 295.183 60.7861 297.571 60.7861C300.471 60.7861 302.742 61.8555 304.382 63.9941C306.038 66.1182 306.865 69.1138 306.865 72.981V73.3325ZM300.515 72.8711C300.515 70.4688 300.134 68.7183 299.373 67.6196C298.611 66.5063 297.476 65.9497 295.967 65.9497C293.945 65.9497 292.554 66.7773 291.792 68.4326V77.8149C292.568 79.4849 293.975 80.3198 296.011 80.3198C298.062 80.3198 299.409 79.3091 300.054 77.2876C300.361 76.3208 300.515 74.8486 300.515 72.8711ZM324.666 85.4395C321.179 85.4395 318.338 84.3701 316.14 82.2314C313.958 80.0928 312.866 77.2437 312.866 73.6841V73.0688C312.866 70.6812 313.328 68.5498 314.251 66.6748C315.174 64.7852 316.477 63.335 318.162 62.3242C319.861 61.2988 321.795 60.7861 323.963 60.7861C327.215 60.7861 329.771 61.8115 331.631 63.8623C333.506 65.9131 334.444 68.8208 334.444 72.5854V75.1782H319.304C319.509 76.731 320.125 77.9761 321.15 78.9136C322.19 79.8511 323.501 80.3198 325.083 80.3198C327.529 80.3198 329.441 79.4336 330.818 77.6611L333.938 81.1548C332.986 82.5024 331.697 83.5571 330.071 84.3188C328.445 85.0659 326.643 85.4395 324.666 85.4395ZM323.941 65.9277C322.681 65.9277 321.655 66.3525 320.864 67.2021C320.088 68.0518 319.59 69.2676 319.37 70.8496H328.203V70.3442C328.174 68.938 327.793 67.854 327.061 67.0923C326.328 66.3159 325.288 65.9277 323.941 65.9277Z" fill="black"/>
</svg>
